<svg xmlns="http://www.w3.org/2000/svg">      
	<symbol id="icon" viewBox="0 0 24 24">
		<title>Reports icon</title>
		<g transform="translate(3,0)">
			<polygon points="4 14 5 14 5 20 4 20"></polygon>
			<polygon points="7 12 8 12 8 20 7 20"></polygon>
			<polygon points="10 16 11 16 11 20 10 20"></polygon>
			<polygon points="13 15 14 15 14 20 13 20"></polygon>
			<path d="M12.398,0 L0,0 L0,23 L18,23 L18,5.658 L12.398,0 L12.398,0 Z M13,2.031 L15.94,5 L13,5 L13,2.031 L13,2.031 Z M17,22 L1,22 L1,1 L11.979,1 L12,1.021 L12,6 L16.93,6 L17,6.07 L17,22 L17,22 Z"></path>
			<polyline points="10.723 10.231 7.567 6.634 2.56 10.416 3.168 11.209 7.433 7.997 10.486 11.479 15.417 8.875 14.958 7.987 10.723 10.231"></polyline>
	    </g>
	</symbol>
</svg>