<svg xmlns="http://www.w3.org/2000/svg">
	<symbol id="icon" viewBox="0 0 24 24">
		<title>Mic icon</title>
		<g transform="translate(4,0)">
			<path d="M14,7.92 L14,13.924 L13.486,14.381 C11.97,15.897 10,16.803 8,16.926 L8,16.92 L7,16.92 L7,16.923 C5,16.783 3.029,15.879 1.505,14.357 L1,13.92 L1,7.92 L0,7.92 L0,14.377 L0.825,15.088 C2.512,16.774 4,17.782 7,17.923 L7,21.92 L4,21.92 L4,22.92 L11,22.92 L11,21.92 L8,21.92 L8,17.926 C10,17.803 12.489,16.792 14.172,15.109 L15,14.373 L15,7.92 L14,7.92 Z M7.5,15.131 C9.241,15.131 10.841,14.385 11.89,13.083 L12,12.946 L12,2.185 L11.89,2.048 C10.841,0.746 9.241,0 7.5,0 C5.759,0 4.159,0.746 3.111,2.048 L3,2.185 L3,12.946 L3.111,13.083 C4.159,14.385 5.759,15.131 7.5,15.131 Z M4,9.92 L4,7.92 L8,7.92 L8,6.92 L4,6.92 L4,4.92 L8,4.92 L8,3.92 L4,3.92 L4,2.543 C5,1.561 6.124,1 7.5,1 C8.876,1 10,1.561 11,2.543 L11,3.92 L10,3.92 L10,4.92 L11,4.92 L11,6.92 L10,6.92 L10,7.92 L11,7.92 L11,9.92 L10,9.92 L10,10.92 L11,10.92 L11,12.588 C10,13.571 8.876,14.131 7.5,14.131 C6.124,14.131 5,13.571 4,12.588 L4,10.92 L8,10.92 L8,9.92 L4,9.92 L4,9.92 Z"></path>
		</g>
	</symbol>
</svg>