<svg xmlns="http://www.w3.org/2000/svg">
	<symbol id="icon" viewBox="0 0 24 24">
		<g>
			<path d="M19.9852,2.0005 L19.6312,1.6465 L18.9242,2.3545 L19.2782,2.7075 C21.3552,4.7865 22.5002,7.5485 22.5002,10.4865 C22.5002,13.4245 21.3552,16.1875 19.2782,18.2635 L18.9242,18.6175 L19.6312,19.3245 L19.9852,18.9705 C22.2522,16.7055 23.5002,13.6925 23.5002,10.4865 C23.5002,7.2815 22.2522,4.2685 19.9852,2.0005"></path><path d="M17.1561,4.8296 L16.8021,4.4756 L16.0951,5.1836 L16.4491,5.5366 C17.7711,6.8596 18.5001,8.6176 18.5001,10.4866 C18.5001,12.3556 17.7711,14.1136 16.4491,15.4356 L16.0951,15.7886 L16.8021,16.4966 L17.1561,16.1426 C18.6681,14.6306 19.5001,12.6226 19.5001,10.4866 C19.5001,8.3506 18.6681,6.3406 17.1561,4.8296"></path><path d="M1.4998,10.4868 C1.4998,7.5488 2.6448,4.7858 4.7218,2.7078 L5.0748,2.3538 L4.3678,1.6468 L4.0148,2.0008 C1.7478,4.2678 0.4998,7.2818 0.4998,10.4868 C0.4998,13.6928 1.7478,16.7048 4.0148,18.9708 L4.3678,19.3238 L5.0748,18.6168 L4.7218,18.2638 C2.6448,16.1878 1.4998,13.4248 1.4998,10.4868"></path><path d="M7.9031,5.1826 L7.1961,4.4756 L6.8421,4.8296 C5.3321,6.3416 4.5001,8.3506 4.5001,10.4866 C4.5001,12.6216 5.3321,14.6306 6.8421,16.1426 L7.1961,16.4956 L7.9031,15.7886 L7.5491,15.4356 C6.2271,14.1126 5.5001,12.3546 5.5001,10.4866 C5.5001,8.6176 6.2271,6.8596 7.5491,5.5366 L7.9031,5.1826 Z"></path><path d="M11.9998,12.8535 C10.6208,12.8535 9.4998,11.7325 9.4998,10.3535 C9.4998,8.9755 10.6208,7.8535 11.9998,7.8535 C13.3788,7.8535 14.4998,8.9755 14.4998,10.3535 C14.4998,11.7325 13.3788,12.8535 11.9998,12.8535 M8.4998,10.3535 C8.4998,12.1125 9.8078,13.5575 11.4998,13.8025 L11.4998,22.3535 L12.4998,22.3535 L12.4998,13.8025 C14.1918,13.5575 15.4998,12.1125 15.4998,10.3535 C15.4998,8.4245 13.9298,6.8535 11.9998,6.8535 C10.0698,6.8535 8.4998,8.4245 8.4998,10.3535 Z"></path>
		</g>
	</symbol>
</svg>