<svg xmlns="http://www.w3.org/2000/svg">
	<symbol id="icon" viewBox="0 0 24 24">
		<title>Code icon</title>
		<g class="iconFill---2zsU4">
			<path d="M10.0046534,15.9850466 L5.16565339,11.1460466 L5.16561685,11.8531899 L10.0046169,7.01518992 L9.29758315,6.30801008 L4.45858315,11.1460101 L4.10495668,11.4995635 L4.45854661,11.8531534 L9.29754661,16.6921534 L10.0046534,15.9850466 L10.0046534,15.9850466 Z M13.7024534,16.6921534 L18.5414534,11.8531534 L18.8950433,11.4995635 L18.5414169,11.1460101 L13.7024169,6.30801008 L12.9953831,7.01518992 L17.8343831,11.8531899 L17.8343466,11.1460466 L12.9953466,15.9850466 L13.7024534,16.6921534 L13.7024534,16.6921534 Z"></path>
			<path d="M11.5,1.0003 C5.71,1.0003 1,5.7113 1,11.5003 C1,17.2893 5.71,21.9993 11.5,21.9993 C17.289,21.9993 22,17.2893 22,11.5003 C22,5.7113 17.289,1.0003 11.5,1.0003 M11.5,23.0003 C5.159,23.0003 0,17.8413 0,11.5003 C0,5.1593 5.159,0.0003 11.5,0.0003 C17.841,0.0003 23,5.1593 23,11.5003 C23,17.8413 17.841,23.0003 11.5,23.0003"></path>
		</g>
	</symbol>
</svg>