<svg xmlns="http://www.w3.org/2000/svg">
	<symbol id="icon" viewBox="0 0 24 24">
		<title>Window icon</title>
		<g class="iconFill---2zsU4" fill-rule="evenodd">
			<path d="M7.0004,5.5 C7.0004,5.781 6.7724,6.008 6.4924,6.008 C6.2114,6.008 5.9834,5.781 5.9834,5.5 C5.9834,5.219 6.2114,4.992 6.4924,4.992 C6.7724,4.992 7.0004,5.219 7.0004,5.5 L7.0004,5.5 L7.0004,5.5 Z M9.0239,5.5 C9.0239,5.781 8.7959,6.008 8.5159,6.008 C8.2349,6.008 8.0069,5.781 8.0069,5.5 C8.0069,5.219 8.2349,4.992 8.5159,4.992 C8.7959,4.992 9.0239,5.219 9.0239,5.5 L9.0239,5.5 L9.0239,5.5 Z M11.018,5.5 C11.018,5.781 10.79,6.008 10.51,6.008 C10.229,6.008 10.001,5.781 10.001,5.5 C10.001,5.219 10.229,4.992 10.51,4.992 C10.79,4.992 11.018,5.219 11.018,5.5 L11.018,5.5 L11.018,5.5 Z"></path>
			<path d="M1,10 L4,10 L4,7 L1,7 L1,10 L1,10 L1,10 L1,10 L1,10 Z M5,15 L22,15 L22,8 L5,8 L5,15 L5,15 L5,15 L5,15 L5,15 Z M5,4 C10.503,3.996 19.789,3.992 22,3.997 L22,7 L5,7 L5,4 L5,4 L5,4 L5,4 L5,4 Z M23,16 L23,3 L4,3 L4,6 L0,6 L0,10 L0,11 L0,20 L20,20 L20,17 L19,17 L19,19 L1,19 L1,11 L4,11 L4,16 L23,16 L23,16 L23,16 L23,16 L23,16 Z"></path>
		</g>
	</symbol>
</svg>