<svg xmlns="http://www.w3.org/2000/svg"> 
	<symbol id="icon" viewBox="0 0 24 24">
		<title>Paths icon</title>
		<g transform="translate(0, 3)">
			<polygon points="0 2.0476 0 6.0486 1 6.0486 1 3.2666 6 9.2076 6 17.0476 7 17.0476 7 8.8426 2.124 3.0476 4 3.0476 4 2.0476"></polygon>
			<polygon points="18.9999 2.0476 18.9999 3.0476 20.8769 3.0476 15.9999 8.8426 15.9999 17.0476 16.9999 17.0476 16.9999 9.2076 21.9999 3.2666 21.9999 6.0486 23.0009 6.0486 23.0009 2.0476"></polygon>
			<polygon points="11.502 0.0001 9.022 2.7581 9.765 3.4251 11 2.0541 11 17.0481 12 17.0481 12 2.0491 13.238 3.4251 13.982 2.7581"></polygon>
		</g>
	</symbol>
</svg>