<svg xmlns="http://www.w3.org/2000/svg">   
	<symbol id="icon" viewBox="0 0 24 24">
		<title>Account icon</title>
		<g>
			<path d="M1,1 L18,1 L18,6 L19,6 L19,0 L0,0 L0,18 L14,18 L14,17 L1,17 L1,1 Z M18.5,8.231 C16.249,8.231 14.417,10.063 14.417,12.315 C14.417,13.62 15,14.771 16,15.519 L16,21.842 L18.5,20.479 L21,21.842 L21,15.519 C21,14.771 22.583,13.62 22.583,12.315 C22.583,10.063 20.751,8.231 18.5,8.231 Z M20,20.158 L18.5,19.34 L17,20.158 L17,16.104 C17,16.288 17.97,16.398 18.5,16.398 C19.031,16.398 19,16.288 20,16.104 L20,20.158 L20,20.158 Z M18.5,15.398 C16.8,15.398 15.417,14.015 15.417,12.315 C15.417,10.615 16.8,9.231 18.5,9.231 C20.2,9.231 21.583,10.615 21.583,12.315 C21.583,14.015 20.2,15.398 18.5,15.398 Z M4,6 L12,6 L12,7 L4,7 L4,6 Z M4,9 L12,9 L12,10 L4,10 L4,9 Z M4,12 L9,12 L9,13 L4,13 L4,12 Z"></path>
		</g>
	</symbol>
</svg>