<svg xmlns="http://www.w3.org/2000/svg"> 
	<symbol id="icon" viewBox="0 0 24 24">
		<title>Courses icon</title>
		<g>
			<path d="M8,16.841 L17.25,11.5 L8,6.159 L8,16.841 L8,16.841 Z M9,7.892 L15.25,11.5 L9,15.108 L9,7.892 L9,7.892 Z"></path>
			<path d="M12,0 C5.159,0 0,5.159 0,12 C0,17.841 5.159,23 12,23 C17.841,23 23,17.841 23,12 C23,5.159 17.841,0 12,0 L12,0 Z M12,22 C5.71,22 1,17.289 1,12 C1,5.711 5.71,1 12,1 C17.289,1 21.999,5.711 22,12 C21.999,17.289 17.289,22 12,22 L12,22 Z"></path>
		</g>
	</symbol>
</svg>