<svg xmlns="http://www.w3.org/2000/svg"> 
	<symbol id="icon" viewBox="0 0 24 24">
		<title>Feed icon</title>
		<g class="iconFill---2zsU4" transform="translate(2, 1)">
			<g transform="translate(9.695135, 6.219060) rotate(-15.000000) translate(-9.695135, -6.219060) translate(1.195135, 2.219060)">
				<path d="M6.38013939,1.70830879 L6.38013939,6.70830879 L15.3801394,6.70830879 L15.3801394,1.70830879 L6.38013939,1.70830879 Z M6.38013939,0.708308788 L15.3801394,0.708308788 C15.9324241,0.708308788 16.3801394,1.15602404 16.3801394,1.70830879 L16.3801394,6.70830879 C16.3801394,7.26059354 15.9324241,7.70830879 15.3801394,7.70830879 L6.38013939,7.70830879 C5.82785464,7.70830879 5.38013939,7.26059354 5.38013939,6.70830879 L5.38013939,1.70830879 C5.38013939,1.15602404 5.82785464,0.708308788 6.38013939,0.708308788 Z"></path>
				<path d="M3.38013939,2.70830879 L3.38013939,5.70830879 L5.38013939,5.70830879 L5.38013939,2.70830879 L3.38013939,2.70830879 Z M3.38013939,1.70830879 L5.38013939,1.70830879 C5.93242414,1.70830879 6.38013939,2.15602404 6.38013939,2.70830879 L6.38013939,5.70830879 C6.38013939,6.26059354 5.93242414,6.70830879 5.38013939,6.70830879 L3.38013939,6.70830879 C2.82785464,6.70830879 2.38013939,6.26059354 2.38013939,5.70830879 L2.38013939,2.70830879 C2.38013939,2.15602404 2.82785464,1.70830879 3.38013939,1.70830879 Z"></path>
				<path d="M1.38013939,3.70830879 L1.38013939,4.70830879 L2.38013939,4.70830879 L2.38013939,3.70830879 L1.38013939,3.70830879 Z M1.38013939,2.70830879 L2.38013939,2.70830879 C2.93242414,2.70830879 3.38013939,3.15602404 3.38013939,3.70830879 L3.38013939,4.70830879 C3.38013939,5.26059354 2.93242414,5.70830879 2.38013939,5.70830879 L1.38013939,5.70830879 C0.827854639,5.70830879 0.380139389,5.26059354 0.380139389,4.70830879 L0.380139389,3.70830879 C0.380139389,3.15602404 0.827854639,2.70830879 1.38013939,2.70830879 Z"></path>
			</g>
			<path d="M9.5,13 C10.3284271,13 11,12.3284271 11,11.5 C11,10.6715729 10.3284271,10 9.5,10 C8.67157288,10 8,10.6715729 8,11.5 C8,12.3284271 8.67157288,13 9.5,13 Z M9.5,14 C8.11928813,14 7,12.8807119 7,11.5 C7,10.1192881 8.11928813,9 9.5,9 C10.8807119,9 12,10.1192881 12,11.5 C12,12.8807119 10.8807119,14 9.5,14 Z"></path>
			<rect x="9" y="13" width="1" height="7"></rect>
			<rect transform="translate(12.248798, 16.395032) scale(-1, 1) rotate(-330.000000) translate(-12.248798, -16.395032) " x="11.7487976" y="12.7634619" width="1" height="7.26313972"></rect>
			<rect transform="translate(6.748798, 16.395032) rotate(-330) translate(-6.748798, -16.395032) " x="6.24879763" y="12.7634619" width="1" height="7.26313972"></rect>
		</g>
	</symbol>
</svg>