<svg xmlns="http://www.w3.org/2000/svg">
	<symbol id="icon" viewBox="0 0 24 24">
		<title>Logs icon</title>
		<g>
			<path d="M19.446,9 L16,9 L16,10 L18.85,10 L21.66,15 L15,15 L15,16.624 C15,17.398 14.689,18 13.915,18 L9.633,18 C8.86,18 8,17.398 8,16.624 L8,15 L1.349,15 L4.218,10 L7,10 L7,9 L3.629,9 L0,15.544 L0,23 L23,23 L23,15.546 L19.446,9 L19.446,9 Z M22,22 L1,22 L1,16 L7,16 L7,16.624 C7,17.949 8.308,19 9.633,19 L13.915,19 C15.24,19 16,17.949 16,16.624 L16,16 L22,16 L22,22 Z M15.66,7.176 L14.953,6.469 L12,9.421 L12,0 L11,0 L11,9.421 L8.047,6.469 L7.34,7.176 L11.5,11.335 L15.66,7.176 Z"></path>
		</g>
	</symbol>
</svg>