<svg xmlns="http://www.w3.org/2000/svg"> 
	<symbol id="icon" viewBox="0 0 24 24">
		<title>Mentors icon</title>
		<g transform="translate(1,0)">
			<path d="M12.5436412,18.486 C11.3016412,19.728 9.62564117,20.357 7.80364117,20.365 C5.99864117,20.334 4.30964117,19.623 3.04864117,18.361 C1.66764117,16.981 0.888641172,14.851 1.01364117,12.802 C1.11464117,11.149 1.77764117,9.766 2.86164117,8.919 C3.03164117,8.797 7.00464117,5.874 6.09564117,0.867 L5.11164117,1.045 C5.90564117,5.42 2.42564117,8 2.26264117,8.118 C0.932641172,9.157 0.134641172,10.798 0.0156411717,12.74 C-0.129358828,15.102 0.740641172,17.469 2.34064117,19.068 C3.78664117,20.514 5.72064117,21.33 7.78764117,21.364 L7.92464117,21.366 C9.95964117,21.366 11.8466412,20.597 13.2506412,19.193 L20.5486412,11.894 L19.8416412,11.187 L12.5436412,18.486 Z M13.6636412,13.616 L21.4096412,5.871 L20.7026412,5.164 L12.9566412,12.909 L13.6636412,13.616 Z M11.9436412,10.174 L19.6886412,2.429 L18.9816412,1.722 L11.2356412,9.467 L11.9436412,10.174 Z M5.81764117,15.185 L6.52564117,15.891 C8.95464117,13.462 7.92464117,10.496 7.46464117,9.488 L16.2456412,0.707 L15.5386412,0 L6.22964117,9.31 L6.42564117,9.643 C6.50064117,9.77 8.22364117,12.778 5.81764117,15.185 Z"></path>
		</g>
	</symbol>
</svg>