<svg xmlns="http://www.w3.org/2000/svg"> 
	<symbol id="icon" viewBox="0 0 24 24">
		<title>Org icon</title>
		<g transform="translate(1,0)">
			<path d="M3,5 L18,5 L18,0 L3,0 L3,5 Z M4,1 L17,1 L17,4 L4,4 L4,1 Z M3,12 L10,12 L10,15 L11,15 L11,12 L18,12 L18,15 L19,15 L19,11 L11,11 L11,6 L10,6 L10,11 L2,11 L2,15 L3,15 L3,12 Z M2.5,16 C1.1219352,16 0,17.1219352 0,18.5 C0,19.8780648 1.1219352,21 2.5,21 C3.8780648,21 5,19.8780648 5,18.5 C5,17.1219352 3.8780648,16 2.5,16 Z M2.5,20 C1.6728972,20 1,19.3271028 1,18.5 C1,17.671729 1.6728972,17 2.5,17 C3.3271028,17 4,17.671729 4,18.5 C4,19.3271028 3.3271028,20 2.5,20 Z M10.5,16 C9.12084063,16 8,17.1219352 8,18.5 C8,19.8780648 9.12084063,21 10.5,21 C11.8791594,21 13,19.8780648 13,18.5 C13,17.1219352 11.8791594,16 10.5,16 Z M10.5,20 C9.67172897,20 9,19.3271028 9,18.5 C9,17.671729 9.67172897,17 10.5,17 C11.3271028,17 12,17.671729 12,18.5 C12,19.3271028 11.3271028,20 10.5,20 Z M18.4994526,16 C17.1210861,16 16,17.1219352 16,18.5 C16,19.8780648 17.1210861,21 18.4994526,21 C19.8789139,21 21,19.8780648 21,18.5 C21,17.1219352 19.8789139,16 18.4994526,16 Z M18.4994157,20 C17.6719907,20 17,19.3271028 17,18.5 C17,17.671729 17.6719907,17 18.4994157,17 C19.3268407,17 20,17.671729 20,18.5 C20,19.3271028 19.3268407,20 18.4994157,20 L18.4994157,20 Z"></path>
		</g>
	</symbol>
</svg>