<svg xmlns="http://www.w3.org/2000/svg"> 
	<symbol id="icon" viewBox="0 0 24 24">
		<title>Signout icon</title>
		<g transform="translate(4,4)">
			<path d="M9,14 L1,14 L1,1 L9,1 L9,4 L10,4 L10,0.5 C10,0.223857625 9.77614237,0 9.5,0 L0.5,0 C0.223857625,0 0,0.223857625 0,0.5 L0,14.5 C0,14.7761424 0.223857625,15 0.5,15 L9.5,15 C9.77614237,15 10,14.7761424 10,14.5 L10,11 L9,11 L9,14 Z"></path>
			<path d="M4.00000001,8 L15.5,8 C15.7761424,8 16,7.77614237 16,7.5 C16,7.22385763 15.7761424,7 15.5,7 L4.00000001,7 L4.00000001,8 Z"></path>
			<path d="M12.1464466,4.85355339 L15.1464466,7.85355339 L15.1464466,7.14644661 L12.1464466,10.1464466 C11.9511845,10.3417088 11.9511845,10.6582912 12.1464466,10.8535534 C12.3417088,11.0488155 12.6582912,11.0488155 12.8535534,10.8535534 L15.8535534,7.85355339 C16.0488155,7.65829124 16.0488155,7.34170876 15.8535534,7.14644661 L12.8535534,4.14644661 C12.6582912,3.95118446 12.3417088,3.95118446 12.1464466,4.14644661 C11.9511845,4.34170876 11.9511845,4.65829124 12.1464466,4.85355339 L12.1464466,4.85355339 Z"></path>
		</g>
	</symbol>
</svg>